<svg xmlns="http://www.w3.org/2000/svg" viewBox="0 0 330.6 68.4"><defs><style>.cls-1{fill:#38aecb;}</style></defs><title>logo</title><g id="Layer_2" data-name="Layer 2"><g id="Layer_1-2" data-name="Layer 1"><path class="cls-1" d="M.91,51.94a8.26,8.26,0,0,1-.68-5.79,27.88,27.88,0,0,1,2.63-7.09,12.2,12.2,0,0,1-1.18-7A25.82,25.82,0,0,1,4,23.91a43.32,43.32,0,0,1,5.05-8.24,48.75,48.75,0,0,1,7-7.38,42.37,42.37,0,0,1,8.18-5.52A24.74,24.74,0,0,1,32.87.07,11.88,11.88,0,0,1,37,.37a30.91,30.91,0,0,1,4.11,1.24,6.2,6.2,0,0,1,3.66,4,15.1,15.1,0,0,1,.47,6.35,36.57,36.57,0,0,1-1.77,7.56,78,78,0,0,1-3,7.62q-1.68,3.63-3.37,6.53a50,50,0,0,1-2.69,4.25q-.71,1-2,2.66t-3,3.57Q27.73,46,25.72,48a46.51,46.51,0,0,1-4.19,3.72q2.89,1.18,5.73,2.66l5.67,2.92q2.84,1.45,5.73,2.69a38.16,38.16,0,0,0,5.88,2,26.44,26.44,0,0,0,6.11.77,22,22,0,0,0,6.5-1,3.42,3.42,0,0,1-.3,2.6,6,6,0,0,1-1.89,2,10.32,10.32,0,0,1-2.89,1.3,19.72,19.72,0,0,1-3.31.65A19.45,19.45,0,0,1,42.88,68a27.12,27.12,0,0,1-5.41-1.74,41.73,41.73,0,0,1-5.08-2.69Q29.91,62,27.46,60.39t-4.87-3.25a44.73,44.73,0,0,0-5-2.84,18.09,18.09,0,0,1-5,1.92,9.14,9.14,0,0,1-5-.27,16,16,0,0,1-1.86-.68,19.41,19.41,0,0,1-2-1A13.52,13.52,0,0,1,2,53.09,5.52,5.52,0,0,1,.91,51.94Zm7.15-.24q-.71,0-.5-.33a2.54,2.54,0,0,1,.89-.71,10.75,10.75,0,0,1,1.68-.74A9.55,9.55,0,0,1,12,49.46l1.89.24q.94.12,2,.3a51.11,51.11,0,0,0,4.61-4.76q2.36-2.75,4.55-5.61t4-5.64q1.83-2.78,3-4.9,1.71-3,3.25-6.2a63.09,63.09,0,0,0,2.6-6.17,42,42,0,0,0,1.6-5.55,14.42,14.42,0,0,0,.33-4.43,4.18,4.18,0,0,0-1.24-2.78,3.73,3.73,0,0,0-3.1-.62,19,19,0,0,0-6,2A37.13,37.13,0,0,0,23.92,9a45.2,45.2,0,0,0-4.84,4.4q-2.21,2.33-3.81,4.34-.83,1.06-1.95,2.63t-2.25,3.43a35.12,35.12,0,0,0-2,3.93A23.2,23.2,0,0,0,7.64,31.8q1.77-2.36,3.69-4.49t3.72-3.87a39.18,39.18,0,0,1,3.43-3,15,15,0,0,1,2.81-1.77,3.89,3.89,0,0,1,2.24-.27,13.34,13.34,0,0,1,3,.65,10.32,10.32,0,0,1,2.51,1.21q1,.71.68,1.3-.95.71-3.37,2.63T21,28.78q-3,2.66-6,5.76a50.11,50.11,0,0,0-5.26,6.17,13,13,0,0,0,5.55,2.36,2,2,0,0,1,1.21.53,1.41,1.41,0,0,1,.41.86,1.27,1.27,0,0,1-.24.83.85.85,0,0,1-.74.38A21.12,21.12,0,0,1,11.45,45a19.24,19.24,0,0,1-3.63-1.36L7.26,45a6.12,6.12,0,0,0-.38,1.21q-.41,1.18-.68,2.25a9.37,9.37,0,0,0-.3,1.95A3.25,3.25,0,0,0,6.22,52,3.21,3.21,0,0,0,7.4,53.24a3.16,3.16,0,0,0,2.39.38,7.73,7.73,0,0,0,2.87-1.27,20.34,20.34,0,0,0-2.3-.44Q9.23,51.77,8.05,51.71Z"/><path class="cls-1" d="M63.94,26.54q.24-.35,1.48-.3a13.61,13.61,0,0,1,2.57.38,16.54,16.54,0,0,1,2.33.74q1,.41.77.77a94.22,94.22,0,0,0-7.18,9.3,57.58,57.58,0,0,0-5.46,10.31q-.65,1.42,0,1.39a4.63,4.63,0,0,0,1.92-.77A27.9,27.9,0,0,0,63,46.6L65.06,45q2-1.83,4.14-4t4.19-4.4q2.07-2.24,4-4.52t3.75-4.34a1.67,1.67,0,0,1,1.57-.15q.74.33.27,1-1.89,2.13-3.93,4.58T75,38.15Q72.86,40.6,70.79,43t-4,4.25a35.57,35.57,0,0,1-3.66,3.19A10.56,10.56,0,0,1,60,52.12q-4.61-.18-6.62-1.42t-1.71-3a21.21,21.21,0,0,1,1.77-5.26q-.95,1.12-2,2.42t-2.1,2.51l-1.89,2.22q-.86,1-1.39,1.54a2.78,2.78,0,0,1-2.69.53,9.44,9.44,0,0,1-3.1-1.45A13.87,13.87,0,0,1,37.8,48q-1-1.18-.92-1.77a76.74,76.74,0,0,1,5.29-10.19q3-4.81,6.53-9.6.29-.35,1.42-.38a13.25,13.25,0,0,1,2.3.15,10.51,10.51,0,0,1,2.13.53q.94.35.89.77-3.72,5-6.68,9.57a52,52,0,0,0-4.73,9q-.47,1.06-.24,1.51a.76.76,0,0,0,.83.38,3.52,3.52,0,0,0,1.36-.5,5.63,5.63,0,0,0,1.36-1.09q.77-.77,2.33-2.57t3.4-4l3.66-4.31q1.83-2.16,3.19-3.69,1-1.42,2-2.75Z"/><path class="cls-1" d="M91.41,29.37a11.36,11.36,0,0,1-2.1,4.49,22.38,22.38,0,0,1-3.93,4,29.32,29.32,0,0,1-5,3.25,27,27,0,0,1-5.29,2.1q-.41,1.36-.62,2.3a2.87,2.87,0,0,0,0,1.59q.41,3,5.08,1.42a19.93,19.93,0,0,0,6.23-3.28,51.72,51.72,0,0,0,5.52-5q2.66-2.75,5.2-5.82t5.26-5.91a1.17,1.17,0,0,1,.8-.41,1,1,0,0,1,.65.24,1.14,1.14,0,0,1,.35.59.87.87,0,0,1-.15.71q-2,2.19-4,4.61t-4.11,4.81q-2.07,2.39-4.14,4.61a54.23,54.23,0,0,1-4.08,4,26.46,26.46,0,0,1-4,2.89A10.23,10.23,0,0,1,79.24,52a8.24,8.24,0,0,1-3.57-.32,11.33,11.33,0,0,1-3.28-1.62,10.62,10.62,0,0,1-2.48-2.48,6.26,6.26,0,0,1-1.18-2.83A6.35,6.35,0,0,1,69.2,42a22.26,22.26,0,0,1,1.65-3.52,35.6,35.6,0,0,1,2.54-3.81q1.48-1.95,3.07-3.69a32.55,32.55,0,0,1,3.28-3.13A15.13,15.13,0,0,1,83,25.77a4.23,4.23,0,0,1,2.69-.33,10.63,10.63,0,0,1,2.84.92,7.72,7.72,0,0,1,2.19,1.54Q91.53,28.78,91.41,29.37ZM88.34,29a10.6,10.6,0,0,0-2.42,1.51q-1.6,1.21-3.4,2.84A42.48,42.48,0,0,0,79,36.85a21.06,21.06,0,0,0-2.63,3.63q1.36-.59,2.22-1a16.08,16.08,0,0,0,1.48-.8,10.08,10.08,0,0,0,1.15-.83q.53-.44,1.3-1a12.32,12.32,0,0,0,1-1Q84.26,35,85,34.13l1.51-1.86a18.25,18.25,0,0,0,1.27-1.74,12.7,12.7,0,0,0,.71-1.24Q88.69,28.84,88.34,29Z"/><path class="cls-1" d="M108.36,20.4a.87.87,0,0,1,1,.18,4.88,4.88,0,0,1,1,1.06,5,5,0,0,1,.71,1.36,1.08,1.08,0,0,1-.06,1.06,8.91,8.91,0,0,0-3.31,3.49,13,13,0,0,0-1.21,4.17,29.49,29.49,0,0,0-.18,4.61,31.41,31.41,0,0,1-.18,4.73,16.61,16.61,0,0,1-1.21,4.58,10.7,10.7,0,0,1-3.31,4.14A13.82,13.82,0,0,1,92.38,53a10.09,10.09,0,0,1-3.78-.83,4.45,4.45,0,0,1-2.22-1.86A3.5,3.5,0,0,1,86,48a8,8,0,0,1,.83-2.57,8.52,8.52,0,0,1,1.65-2.25A5.34,5.34,0,0,1,90.7,41.9a4,4,0,0,1,2.69.09,15.28,15.28,0,0,1,2.22,1.27,6.06,6.06,0,0,0-2.66,1.12,5.88,5.88,0,0,0-1.6,1.8,4.29,4.29,0,0,0-.56,1.92,2.35,2.35,0,0,0,.38,1.51,1.47,1.47,0,0,0,1.27.56,3.75,3.75,0,0,0,2.1-.95,9.28,9.28,0,0,0,3.28-4.31,24.94,24.94,0,0,0,1.27-5.35q.35-2.81.62-5.58A15,15,0,0,1,101,29a31.26,31.26,0,0,1,2.54-4A22.4,22.4,0,0,1,108.36,20.4Z"/><path class="cls-1" d="M126.32,20q2.6-3.48,4.11-5.41a35.11,35.11,0,0,1,2.69-3.1q.24-.35,1.12,0a8.12,8.12,0,0,1,1.77,1,10.58,10.58,0,0,1,1.54,1.36q.65.71.41,1.12l-.38.38-.18.18-.24.27-.5.59,1.3-.29a6.6,6.6,0,0,1,1.86-.09,5.19,5.19,0,0,1,1.68.44,3.24,3.24,0,0,1,1.24,1,2.82,2.82,0,0,1,.53,1.57,20.31,20.31,0,0,0-5.38.65q-2.36.65-4.84,1.48-2.66,3.6-5.44,7.71t-5.14,8q-2.36,3.87-4.08,7.15a28.24,28.24,0,0,0-2.24,5.23q-.41,1.48.32,1.39a4.67,4.67,0,0,0,1.92-.92,25,25,0,0,0,2.42-2L122.72,46q2.07-1.83,4.22-4.11t4.28-4.67q2.13-2.39,4.19-4.81t4-4.61a1.29,1.29,0,0,1,1.45-.15.69.69,0,0,1,.27,1q-3,3.25-5.94,7.15t-5.85,7.41a70.34,70.34,0,0,1-5.55,6.11,11.76,11.76,0,0,1-5.05,3.19,8.23,8.23,0,0,1-3-.3,7.67,7.67,0,0,1-2.45-1.18,5,5,0,0,1-1.54-1.77,2.81,2.81,0,0,1-.21-2.07A27.84,27.84,0,0,1,113.09,43q1.18-2.84,2.9-6.56a66.17,66.17,0,0,1,3.28-6.2q1.8-3,4.28-6.44a14.52,14.52,0,0,1-3.28-.09,2,2,0,0,1-1.51-1.33l2.1-.65,1.86-.56q.89-.27,1.74-.56Z"/><path class="cls-1" d="M139.56,26.54q.24-.35,1.48-.3a13.61,13.61,0,0,1,2.57.38,16.52,16.52,0,0,1,2.33.74q1,.41.77.77a94.21,94.21,0,0,0-7.18,9.3,57.51,57.51,0,0,0-5.46,10.31q-.65,1.42.09,1.39a4.77,4.77,0,0,0,2-.74,24,24,0,0,0,2.6-1.74q1.36-1,2.07-1.62,2-1.83,4.11-4t4.17-4.43q2.07-2.27,4-4.52t3.72-4.31a1.67,1.67,0,0,1,1.57-.15q.74.33.27,1-2.9,3.19-5.85,7t-5.91,7.21a68.07,68.07,0,0,1-5.79,6,13.75,13.75,0,0,1-5.44,3.28Q131,51.94,129,50.7t-1.71-3a22.41,22.41,0,0,1,1.77-5.26,54.25,54.25,0,0,1,3-5.58q1.74-2.81,3.69-5.46T139.56,26.54Zm9.63-13.29a2.12,2.12,0,0,1,1.74,0,11.35,11.35,0,0,1,2.27,1.06,10.82,10.82,0,0,1,1.89,1.42q.77.74.59,1.09Q154.09,18.09,153,19l-2,1.71-1.89,1.62-2.39,2a1.52,1.52,0,0,1-1.12.18,3.4,3.4,0,0,1-1.18-.44,2.59,2.59,0,0,1-.83-.77.78.78,0,0,1,0-.92l.8-1.62q.5-1,1.18-2.27t1.57-2.6A24.8,24.8,0,0,1,149.19,13.25Z"/><path class="cls-1" d="M179.79,31.21a15.39,15.39,0,0,1-5.55,1.92,14.68,14.68,0,0,1-5.67-.21,28.89,28.89,0,0,1-2.92,5.58,55.19,55.19,0,0,1-4.16,5.55A51.24,51.24,0,0,1,157,48.72a18.52,18.52,0,0,1-3.9,2.87,3.81,3.81,0,0,1-1.8.5,6.07,6.07,0,0,1-1.89-.24,7.54,7.54,0,0,1-1.68-.71,4,4,0,0,1-1.18-1A9.87,9.87,0,0,0,145.35,49a2.19,2.19,0,0,1-.77-1.39,11.85,11.85,0,0,1,.32-4.22,25.68,25.68,0,0,1,1.68-4.76,31.81,31.81,0,0,1,2.72-4.73,27.43,27.43,0,0,1,3.46-4.11,19.2,19.2,0,0,1,3.9-3,9.31,9.31,0,0,1,4-1.27,5.41,5.41,0,0,1,2.3.24l1.54.53,1.12,1.06a1.57,1.57,0,0,1,1.77.3l.59.47c.27.12.54.25.8.38a.78.78,0,0,1,.44.56,11.61,11.61,0,0,0,4.7,1.77,6.3,6.3,0,0,0,4.52-1.24q1.3-.35,1.77.33T179.79,31.21ZM150.84,46.74q-.41,2.3.38,2.51t2.27-.92a24.2,24.2,0,0,0,3.37-3.28q1.89-2.15,3.69-4.58t3.28-4.79a27.46,27.46,0,0,0,2.13-4q-.35-.35-.74-.68a3.34,3.34,0,0,1-.68-.8.31.31,0,0,1-.15-.12.93.93,0,0,0-.15-.18,19.4,19.4,0,0,0-4.76,3.4A28.1,28.1,0,0,0,155,38.71q-1.24,1.89-2.54,4A12.08,12.08,0,0,0,150.84,46.74Z"/><path class="cls-1" d="M190.72,35a18.06,18.06,0,0,0,1.83-3.25q.35-1-.09-1a3.28,3.28,0,0,0-1.57.74,28,28,0,0,0-2.6,2.07q-1.48,1.3-3.16,3t-3.22,3.4q-2.48,3-4.79,6.14T173,52q-.18.3-.95,0a8.85,8.85,0,0,1-1.59-.83A8.69,8.69,0,0,1,169,50c-.41-.41-.6-.72-.56-.92a61.56,61.56,0,0,1,2.3-7.5,49,49,0,0,1,2.63-5.73,42.55,42.55,0,0,1,2.87-4.58q1.48-2,3-4a1.66,1.66,0,0,1,1.27-.35,9.81,9.81,0,0,1,2,.21,5.69,5.69,0,0,1,1.71.62q.71.41.47.83-1.12,1.6-2.42,3.57T179.88,36q-1.09,1.86-1.83,3.31a5.76,5.76,0,0,0-.74,1.92,13.82,13.82,0,0,1,1.57-2.13q1.15-1.36,2.66-3t3.22-3.22q1.71-1.62,3.34-3a34.82,34.82,0,0,1,3-2.22,5.13,5.13,0,0,1,2.13-.94,5.22,5.22,0,0,1,2.27,0,11,11,0,0,1,2.69.89,8.3,8.3,0,0,1,2.22,1.51,2.35,2.35,0,0,1,.86,1.83l-2.69,3.46q-1.21,1.57-2.36,3.16T193.85,41q-1.18,1.71-2.54,3.78a8.45,8.45,0,0,0-.92,2.07,5.74,5.74,0,0,0-.33,2c0,.53.3.79.77.77s1.26-.58,2.36-1.68q2.07-1.95,4.4-4.52t4.61-5.32q2.27-2.75,4.31-5.46t3.57-5a1.13,1.13,0,0,1,.74-.41,1.79,1.79,0,0,1,.8.06,1,1,0,0,1,.53.41.57.57,0,0,1-.06.65q-1.6,2.25-4,5.41t-5,6.5q-2.6,3.34-5.17,6.38t-4.64,5.05a2.72,2.72,0,0,1-.95.41,12,12,0,0,1-1.8.38,15.15,15.15,0,0,1-2.13.15,5.69,5.69,0,0,1-1.92-.3,2.93,2.93,0,0,1-1.33-1.12,6.3,6.3,0,0,1-.77-1.65,8,8,0,0,1-.33-1.77,5.71,5.71,0,0,1,.06-1.48,12,12,0,0,1,.8-2.87,17.41,17.41,0,0,1,1.42-2.66q.86-1.33,1.95-2.72T190.72,35Z"/><path class="cls-1" d="M220.9,35a18.06,18.06,0,0,0,1.83-3.25q.35-1-.09-1a3.28,3.28,0,0,0-1.57.74,28,28,0,0,0-2.6,2.07q-1.48,1.3-3.16,3t-3.22,3.4q-2.48,3-4.79,6.14t-4.14,6q-.18.3-.95,0a8.85,8.85,0,0,1-1.59-.83A8.69,8.69,0,0,1,199.19,50c-.41-.41-.6-.72-.56-.92a61.56,61.56,0,0,1,2.3-7.5,49,49,0,0,1,2.63-5.73,42.55,42.55,0,0,1,2.87-4.58q1.48-2,3-4a1.66,1.66,0,0,1,1.27-.35,9.81,9.81,0,0,1,2,.21,5.69,5.69,0,0,1,1.71.62q.71.41.47.83-1.12,1.6-2.42,3.57T210.06,36q-1.09,1.86-1.83,3.31a5.76,5.76,0,0,0-.74,1.92,13.82,13.82,0,0,1,1.57-2.13q1.15-1.36,2.66-3t3.22-3.22q1.71-1.62,3.34-3a34.82,34.82,0,0,1,3-2.22,5.13,5.13,0,0,1,2.13-.94,5.22,5.22,0,0,1,2.27,0,11,11,0,0,1,2.69.89,8.3,8.3,0,0,1,2.22,1.51,2.35,2.35,0,0,1,.86,1.83l-2.69,3.46q-1.21,1.57-2.36,3.16T224,41q-1.18,1.71-2.54,3.78a8.45,8.45,0,0,0-.92,2.07,5.74,5.74,0,0,0-.33,2c0,.53.3.79.77.77s1.26-.58,2.36-1.68q2.07-1.95,4.4-4.52t4.61-5.32q2.27-2.75,4.31-5.46t3.57-5a1.13,1.13,0,0,1,.74-.41,1.79,1.79,0,0,1,.8.06,1,1,0,0,1,.53.41.57.57,0,0,1-.06.65q-1.6,2.25-4,5.41t-5,6.5q-2.6,3.34-5.17,6.38t-4.64,5.05a2.72,2.72,0,0,1-.95.41,12,12,0,0,1-1.8.38,15.15,15.15,0,0,1-2.13.15,5.69,5.69,0,0,1-1.92-.3,2.93,2.93,0,0,1-1.33-1.12,6.3,6.3,0,0,1-.77-1.65,8,8,0,0,1-.33-1.77,5.71,5.71,0,0,1,.06-1.48,12,12,0,0,1,.8-2.87,17.41,17.41,0,0,1,1.42-2.66q.86-1.33,1.95-2.72T220.9,35Z"/><path class="cls-1" d="M246.9,33.92q.23-.35,1.45-.27a13.23,13.23,0,0,1,2.51.44,11.75,11.75,0,0,1,2.27.86q1,.5.74.86a36.85,36.85,0,0,0-4.22,6.11,42.42,42.42,0,0,0-2.22,4.64,5.18,5.18,0,0,0-.56,2.19c.06.39.28.56.65.5a3.66,3.66,0,0,0,1.45-.74A19.8,19.8,0,0,0,250.8,47q1.95-1.83,4.19-4.08t4.55-4.78q2.3-2.54,4.61-5.26t4.37-5.44a1.13,1.13,0,0,1,.77-.44,1.19,1.19,0,0,1,.71.15,1.11,1.11,0,0,1,.44.5.67.67,0,0,1-.09.68q-2.89,3.19-5.88,6.88t-5.88,7.09q-2.9,3.4-5.64,6.08a19.26,19.26,0,0,1-5.17,3.81,16.92,16.92,0,0,1-3.72-.44,7.48,7.48,0,0,1-2.3-.95,2.52,2.52,0,0,1-1.06-1.3,2.64,2.64,0,0,1,0-1.57q.41-1.54.77-2.78t.71-2.3q-.94,1.3-1.77,2.66T238.8,48q-.77,1.18-1.54,2.16a7.24,7.24,0,0,1-1.65,1.57q-.35.29-1.36,0a12.46,12.46,0,0,1-2.16-.89q-1.15-.59-2.19-1.24a5.36,5.36,0,0,1-1.39-1.12,3.35,3.35,0,0,1-.44-2.69,18.42,18.42,0,0,1,1.24-4.25,33.25,33.25,0,0,1,2.57-5,41.12,41.12,0,0,1,3.51-4.84,25.94,25.94,0,0,1,4-3.9,11,11,0,0,1,4.25-2.1,5.86,5.86,0,0,1,3.37.3,27.2,27.2,0,0,1,4,2,2.51,2.51,0,0,1,1.42,1.65,6,6,0,0,1-.41,2.48q-1.36,1.12-1.77.65a1.52,1.52,0,0,1-.12-1.48,2.18,2.18,0,0,0-.09-.92,1.87,1.87,0,0,0-.53-.86,1.79,1.79,0,0,0-1-.44,2.45,2.45,0,0,0-1.42.32,17.58,17.58,0,0,0-3.9,2.66A29.32,29.32,0,0,0,239.66,36a31.08,31.08,0,0,0-2.92,4.4,18.72,18.72,0,0,0-1.77,4.4,7.75,7.75,0,0,0-.35,2.57q.12.62.62.35a4.38,4.38,0,0,0,1.21-1.18q.71-.92,1.42-2,1.54-2.48,3.51-5.11a21.17,21.17,0,0,1,5-4.7Z"/><path class="cls-1" d="M268.16,26.54q.23-.35,1.48-.3a13.62,13.62,0,0,1,2.57.38,16.53,16.53,0,0,1,2.33.74q1,.41.77.77a94.21,94.21,0,0,0-7.18,9.3,57.55,57.55,0,0,0-5.46,10.31q-.65,1.42.09,1.39a4.77,4.77,0,0,0,2-.74,24,24,0,0,0,2.6-1.74q1.36-1,2.07-1.62,2-1.83,4.11-4t4.16-4.43q2.07-2.27,4-4.52t3.72-4.31a1.67,1.67,0,0,1,1.57-.15q.74.33.27,1-2.9,3.19-5.85,7t-5.91,7.21a68.21,68.21,0,0,1-5.79,6,13.76,13.76,0,0,1-5.44,3.28q-4.61-.18-6.62-1.42t-1.71-3a22.48,22.48,0,0,1,1.77-5.26,54.26,54.26,0,0,1,3-5.58q1.74-2.81,3.69-5.46T268.16,26.54Zm9.63-13.29a2.13,2.13,0,0,1,1.74,0,11.37,11.37,0,0,1,2.27,1.06,10.82,10.82,0,0,1,1.89,1.42q.77.74.59,1.09-1.6,1.24-2.66,2.16l-2,1.71-1.89,1.62-2.39,2a1.52,1.52,0,0,1-1.12.18,3.4,3.4,0,0,1-1.18-.44,2.59,2.59,0,0,1-.83-.77.78.78,0,0,1,0-.92l.8-1.62q.5-1,1.18-2.27t1.57-2.6A24.85,24.85,0,0,1,277.79,13.25Z"/><path class="cls-1" d="M287.3,21.4a2.76,2.76,0,0,1,2.24-.41,4.81,4.81,0,0,1,1.92,1,3.35,3.35,0,0,1,1.06,1.48q.27.8-.27,1.09t-1.57,1.12q-.92.71-1.74,1.48a12,12,0,0,0-1.33,1.42q-.5.65-.35,1t1.12.21a15.66,15.66,0,0,0,3.16-.95,7.07,7.07,0,0,1,2.22.24,7.82,7.82,0,0,1,1.86.74,2.69,2.69,0,0,1,1,.92q.27.47-.27.71-2.48,1.95-4.25,3.57a27.72,27.72,0,0,0-3.07,3.28,21.24,21.24,0,0,0-2.24,3.52A25.48,25.48,0,0,0,285.18,46q.53,1.71,2,1.63a7.41,7.41,0,0,0,3.43-1.39,32.89,32.89,0,0,0,4.31-3.49q2.33-2.18,4.67-4.67T304,33.13l3.72-4.28a1.1,1.1,0,0,1,.71-.21,1.3,1.3,0,0,1,.62.21.85.85,0,0,1,.35.47.63.63,0,0,1-.15.59q-1.77,2.3-3.84,4.87t-4.22,5.14q-2.16,2.57-4.34,4.9t-4.17,4.08A23.61,23.61,0,0,1,289,51.65a4.82,4.82,0,0,1-3,.83,8.3,8.3,0,0,1-3.54-.41,8.57,8.57,0,0,1-2.89-1.62,6.53,6.53,0,0,1-1.74-2.33,3.4,3.4,0,0,1-.09-2.6,20.15,20.15,0,0,1,1.71-3.9,30.65,30.65,0,0,1,2-3q1-1.36,2.13-2.66a25.8,25.8,0,0,0,2.16-3,9.84,9.84,0,0,1-4-.53,2.53,2.53,0,0,1-1.68-2.6,5,5,0,0,1,.65-2.3,12.6,12.6,0,0,1,1.71-2.45,15.57,15.57,0,0,1,2.36-2.19A11.74,11.74,0,0,1,287.3,21.4Z"/><path class="cls-1" d="M318.38,29.37a11.35,11.35,0,0,1-2.1,4.49,22.35,22.35,0,0,1-3.93,4,29.31,29.31,0,0,1-5,3.25,27,27,0,0,1-5.29,2.1q-.41,1.36-.62,2.3a2.87,2.87,0,0,0,0,1.59q.41,3,5.08,1.42a19.93,19.93,0,0,0,6.23-3.28,51.62,51.62,0,0,0,5.52-5q2.66-2.75,5.2-5.82t5.26-5.91a1.17,1.17,0,0,1,.8-.41,1,1,0,0,1,.65.24,1.14,1.14,0,0,1,.35.59.87.87,0,0,1-.15.71q-2,2.19-4,4.61t-4.11,4.81q-2.07,2.39-4.14,4.61a54.23,54.23,0,0,1-4.08,4,26.43,26.43,0,0,1-4,2.89A10.22,10.22,0,0,1,306.21,52a8.24,8.24,0,0,1-3.57-.32,11.32,11.32,0,0,1-3.28-1.62,10.61,10.61,0,0,1-2.48-2.48,6.26,6.26,0,0,1-1.18-2.83,6.36,6.36,0,0,1,.47-2.72,22.3,22.3,0,0,1,1.65-3.52,35.6,35.6,0,0,1,2.54-3.81q1.48-1.95,3.07-3.69a32.54,32.54,0,0,1,3.28-3.13,15.14,15.14,0,0,1,3.22-2.1,4.23,4.23,0,0,1,2.69-.33,10.63,10.63,0,0,1,2.83.92,7.72,7.72,0,0,1,2.19,1.54Q318.5,28.78,318.38,29.37ZM315.31,29a10.6,10.6,0,0,0-2.42,1.51q-1.6,1.21-3.4,2.84A42.71,42.71,0,0,0,306,36.85a21.08,21.08,0,0,0-2.63,3.63q1.36-.59,2.22-1a16,16,0,0,0,1.48-.8,10,10,0,0,0,1.15-.83q.53-.44,1.3-1a12.27,12.27,0,0,0,1-1q.68-.74,1.42-1.65l1.51-1.86a18.33,18.33,0,0,0,1.27-1.74,12.3,12.3,0,0,0,.71-1.24Q315.66,28.84,315.31,29Z"/></g></g></svg>